<?xml version="1.0" encoding="utf-8"?>
<!-- Generator: Adobe Illustrator 25.1.0, SVG Export Plug-In . SVG Version: 6.00 Build 0)  -->
<svg version="1.1" id="Layer_1" xmlns="http://www.w3.org/2000/svg" xmlns:xlink="http://www.w3.org/1999/xlink" x="0px" y="0px"
	 viewBox="0 0 141.32 77.19" style="enable-background:new 0 0 141.32 77.19;" xml:space="preserve">
<style type="text/css">
	.st0{fill:#6ED7C9;}
	.st1{fill:#A7C954;}
	.st2{fill:#F44E3A;}
	.st3{fill:#FFBF63;}
	.st4{fill:#FFBE63;}
	.st5{fill:#FF7A49;}
	.st6{fill:none;}
	.st7{enable-background:new    ;}
	.st8{fill:#211F1F;}
</style>
<g>
	<g>
		<path class="st0" d="M43.91,72.45c-1.79,1.79-4.69,1.8-6.49,0.01l-5.81-5.82c-1.38-1.38-1.37-3.61,0.01-4.98l6.47-6.41
			c1.37-1.36,3.59-1.36,4.96,0.01l6.54,6.53c1.37,1.37,1.38,3.6,0.01,4.97L43.91,72.45z"/>
		<path class="st1" d="M62.37,53.95l-6.65,6.66c-1.37,1.37-3.6,1.38-4.97,0.01l-6.51-6.5c-1.38-1.38-1.38-3.61,0.01-4.98l6.68-6.62
			c1.37-1.36,3.59-1.36,4.96,0.01l6.48,6.46C63.74,50.35,63.74,52.58,62.37,53.95z"/>
		<path class="st2" d="M74.34,41.96l-5.84,5.85c-1.37,1.37-3.6,1.38-4.97,0.01l-6.45-6.44C55.7,40,55.7,37.77,57.09,36.4l6.63-6.58
			c1.37-1.36,3.59-1.36,4.96,0.01l5.66,5.64C76.13,37.25,76.14,40.16,74.34,41.96z"/>
		<path class="st0" d="M62.53,28.68l-6.63,6.58c-1.37,1.36-3.59,1.36-4.96-0.01l-6.65-6.63c-1.38-1.38-1.38-3.61,0.01-4.99
			l6.63-6.58c1.37-1.36,3.59-1.36,4.96,0.01l6.65,6.63C63.92,25.07,63.92,27.3,62.53,28.68z"/>
		<path class="st2" d="M49.74,41.37l-6.68,6.62c-1.37,1.36-3.59,1.36-4.96-0.01l-6.65-6.63c-1.38-1.38-1.38-3.61,0.01-4.99
			l6.68-6.62c1.37-1.36,3.59-1.36,4.96,0.01l6.65,6.63C51.13,37.76,51.12,40,49.74,41.37z"/>
		<path class="st3" d="M36.9,54.11l-6.46,6.4c-1.37,1.36-3.59,1.36-4.96-0.01l-6.64-6.64c-1.38-1.38-1.37-3.61,0.01-4.98l6.45-6.39
			c1.37-1.36,3.59-1.36,4.96,0.01l6.65,6.63C38.29,50.5,38.29,52.74,36.9,54.11z"/>
		<path class="st4" d="M49.74,15.91l-6.63,6.58c-1.37,1.36-3.59,1.36-4.96-0.01l-6.63-6.62c-1.37-1.37-1.38-3.6-0.01-4.97l5.84-5.85
			c1.79-1.79,4.69-1.8,6.49-0.01l5.91,5.89C51.13,12.3,51.12,14.54,49.74,15.91z"/>
		<path class="st5" d="M36.95,28.61l-6.68,6.62c-1.37,1.36-3.59,1.36-4.96-0.01l-6.57-6.55c-1.37-1.37-1.38-3.6-0.01-4.97l6.65-6.66
			c1.37-1.37,3.6-1.38,4.97,0l6.6,6.59C38.34,25,38.33,27.23,36.95,28.61z"/>
		<path class="st1" d="M24.11,41.34l-6.45,6.4c-1.37,1.36-3.58,1.36-4.95,0l-5.78-5.72c-1.79-1.79-1.79-4.69-0.01-6.49l5.68-5.7
			c1.37-1.37,3.6-1.38,4.97-0.01l6.54,6.53C25.5,37.74,25.49,39.97,24.11,41.34z"/>
	</g>
	<rect x="9.23" y="26.11" class="st6" width="141.75" height="20.32"/>
	<g class="st7">
		<path class="st8" d="M42.39,28.88c-0.04,2.09-0.04,4.25-0.04,6.4v1.19c0,2.11,0,4.25,0.04,6.38l2.22,0.24v0.84h-6.56v-0.84
			l2.09-0.24c0.04-2.09,0.04-4.2,0.04-6.31l0.02-6.47l-5.43,13.86h-1.03l-5.63-13.82c0.04,2.11,0.13,4.93,0.13,5.04v7.63l2.09,0.31
			v0.84h-5.39v-0.84l2.18-0.31l0.02-13.88l-2.2-0.26V27.8h4.4l5.44,13.38l5.21-13.38h4.64v0.84L42.39,28.88z"/>
		<path class="st8" d="M57.39,42.96c-0.55,0.9-1.23,1.23-2.07,1.23c-1.19,0-1.96-0.73-2.16-1.89c-1.32,1.3-2.16,1.94-3.61,1.94
			c-1.76,0-3.19-1.01-3.19-2.95c0-1.47,0.84-2.53,3.98-3.65c0.77-0.29,1.8-0.57,2.77-0.79V36.1c0-2.38-0.68-2.99-2.31-2.99
			c-0.42,0-0.86,0.07-1.36,0.2l-0.46,1.65c-0.2,0.75-0.59,1.12-1.21,1.12c-0.66,0-1.01-0.33-1.08-0.92
			c0.42-1.85,2.18-2.97,4.66-2.97c2.53,0,3.74,1.14,3.74,4.14v5.24c0,1.14,0.33,1.54,0.88,1.54c0.4,0,0.66-0.22,0.97-0.59
			L57.39,42.96z M53.12,37.59c-0.86,0.24-1.69,0.53-2.22,0.73c-2.11,0.81-2.49,1.76-2.49,2.64c0,1.3,0.84,1.87,1.96,1.87
			c0.86,0,1.41-0.35,2.75-1.41V37.59z"/>
		<path class="st8" d="M71.34,43.18v0.75H65.8v-0.75l1.78-0.26c0.02-1.21,0.04-2.88,0.04-4.05v-2.24c0-2.18-0.59-2.93-2-2.93
			c-1.08,0-2.11,0.46-3.37,1.61v3.56c0,1.12,0.02,2.82,0.04,4.05l1.67,0.26v0.75h-5.54v-0.75l1.78-0.26
			c0.02-1.23,0.04-2.93,0.04-4.05v-1.25c0-1.36-0.02-2.2-0.07-3.17l-1.91-0.2v-0.73l3.39-1.32l0.33,0.22l0.2,1.98
			c1.23-1.36,2.84-2.22,4.33-2.22c2.05,0,3.08,1.28,3.08,4.38v2.31c0,1.17,0.02,2.84,0.04,4.05L71.34,43.18z"/>
		<path class="st8" d="M85.35,43.18v0.75l-3.74,0.24l-0.13-1.65c-0.86,1.08-1.92,1.72-3.39,1.72c-2.95,0-4.95-2.4-4.95-5.92
			c0-3.74,2.18-6.14,5.15-6.14c1.12,0,2.16,0.37,3.17,1.56v-5.72l-2.02-0.18v-0.73l3.72-1.01l0.31,0.18l-0.07,3.43v13.25
			L85.35,43.18z M81.42,34.67c-1.08-0.97-1.91-1.28-2.73-1.28c-1.85,0-3.43,1.41-3.43,4.86c0,3.34,1.45,4.75,3.41,4.75
			c1.06,0,1.83-0.33,2.75-1.36V34.67z"/>
		<path class="st8" d="M97.7,42.96c-0.55,0.9-1.23,1.23-2.07,1.23c-1.19,0-1.96-0.73-2.16-1.89c-1.32,1.3-2.16,1.94-3.61,1.94
			c-1.76,0-3.19-1.01-3.19-2.95c0-1.47,0.84-2.53,3.98-3.65c0.77-0.29,1.8-0.57,2.77-0.79V36.1c0-2.38-0.68-2.99-2.31-2.99
			c-0.42,0-0.86,0.07-1.36,0.2l-0.46,1.65c-0.2,0.75-0.59,1.12-1.21,1.12c-0.66,0-1.01-0.33-1.08-0.92
			c0.42-1.85,2.18-2.97,4.66-2.97c2.53,0,3.74,1.14,3.74,4.14v5.24c0,1.14,0.33,1.54,0.88,1.54c0.4,0,0.66-0.22,0.97-0.59
			L97.7,42.96z M93.43,37.59c-0.86,0.24-1.69,0.53-2.22,0.73c-2.11,0.81-2.49,1.76-2.49,2.64c0,1.3,0.84,1.87,1.96,1.87
			c0.86,0,1.41-0.35,2.75-1.41V37.59z"/>
		<path class="st8" d="M104.43,43.18v0.75h-5.92v-0.75l1.91-0.26c0.02-1.32,0.04-2.73,0.04-4.05V28.02l-1.96-0.18v-0.73l3.72-1.01
			l0.33,0.18l-0.11,3.43v9.15c0,1.32,0.02,2.73,0.04,4.05L104.43,43.18z"/>
		<path class="st8" d="M117.01,42.96c-0.55,0.9-1.23,1.23-2.07,1.23c-1.19,0-1.96-0.73-2.16-1.89c-1.32,1.3-2.16,1.94-3.61,1.94
			c-1.76,0-3.19-1.01-3.19-2.95c0-1.47,0.84-2.53,3.98-3.65c0.77-0.29,1.8-0.57,2.77-0.79V36.1c0-2.38-0.68-2.99-2.31-2.99
			c-0.42,0-0.86,0.07-1.36,0.2l-0.46,1.65c-0.2,0.75-0.59,1.12-1.21,1.12c-0.66,0-1.01-0.33-1.08-0.92
			c0.42-1.85,2.18-2.97,4.66-2.97c2.53,0,3.74,1.14,3.74,4.14v5.24c0,1.14,0.33,1.54,0.88,1.54c0.4,0,0.66-0.22,0.97-0.59
			L117.01,42.96z M112.74,37.59c-0.86,0.24-1.69,0.53-2.22,0.73c-2.11,0.81-2.49,1.76-2.49,2.64c0,1.3,0.84,1.87,1.96,1.87
			c0.86,0,1.41-0.35,2.75-1.41V37.59z"/>
		<path class="st8" d="M121.85,35.33c0.79-1.98,2.18-3.15,3.52-3.15c0.75,0,1.45,0.33,1.74,0.9c0,1.01-0.4,1.65-1.36,1.65
			c-0.57,0-1.03-0.26-1.5-0.68l-0.29-0.26c-0.99,0.73-1.63,1.72-2.09,3.19v1.89c0,1.12,0.02,2.79,0.04,4.03l2,0.29v0.75h-5.85v-0.75
			l1.76-0.26c0.02-1.21,0.04-2.93,0.04-4.05v-1.25c0-1.36-0.02-2.2-0.07-3.17l-1.92-0.2v-0.73l3.39-1.32l0.33,0.22L121.85,35.33z"/>
		<path class="st8" d="M135.45,43.01c-0.62,0.77-1.56,1.23-2.79,1.23c-1.72,0-2.73-0.88-2.73-2.82c0-0.57,0.02-1.1,0.02-2v-5.85
			h-2.05v-0.86l2.16-0.26l0.64-3.26h1.39l-0.13,3.32h3.23v1.06h-3.26v7.77c0,1.28,0.53,1.8,1.39,1.8c0.57,0,1.01-0.22,1.65-0.68
			L135.45,43.01z"/>
	</g>
</g>
</svg>
